<?xml version="1.0" encoding="UTF-8" standalone="no"?>
<svg
   width="512"
   height="512"
   viewBox="0 0 256 256"
   version="1.1"
   id="svg1"
   sodipodi:docname="shield-check.svg"
   inkscape:version="1.4 (e7c3feb1, 2024-10-09)"
   xmlns:inkscape="http://www.inkscape.org/namespaces/inkscape"
   xmlns:sodipodi="http://sodipodi.sourceforge.net/DTD/sodipodi-0.dtd"
   xmlns="http://www.w3.org/2000/svg"
   xmlns:svg="http://www.w3.org/2000/svg">
  <defs
     id="defs1" />
  <sodipodi:namedview
     id="namedview1"
     pagecolor="#ffffff"
     bordercolor="#000000"
     borderopacity="0.25"
     inkscape:showpageshadow="2"
     inkscape:pageopacity="0.0"
     inkscape:pagecheckerboard="0"
     inkscape:deskcolor="#d1d1d1"
     inkscape:zoom="0.76210658"
     inkscape:cx="326.06988"
     inkscape:cy="366.7466"
     inkscape:window-width="1800"
     inkscape:window-height="1086"
     inkscape:window-x="0"
     inkscape:window-y="44"
     inkscape:window-maximized="0"
     inkscape:current-layer="svg1" />
  <path
     fill="currentColor"
     d="M208 40H48a16 16 0 0 0-16 16v58.78c0 89.61 75.82 119.34 91 124.39a15.53 15.53 0 0 0 10 0c15.2-5.05 91-34.78 91-124.39V56a16 16 0 0 0-16-16Zm0 74.79c0 78.42-66.35 104.62-80 109.18c-13.53-4.51-80-30.69-80-109.18V56h160ZM82.34 141.66a8 8 0 0 1 11.32-11.32L112 148.68l50.34-50.34a8 8 0 0 1 11.32 11.32l-56 56a8 8 0 0 1-11.32 0Z"
     id="path1"
     style="fill:#0040ff;fill-opacity:1" />
</svg>
